<svg width="40" height="40" viewBox="0 0 40 40" fill="none" xmlns="http://www.w3.org/2000/svg">
<path d="M0 10C0 4.47715 4.47715 0 10 0H30C35.5228 0 40 4.47715 40 10V40H10C4.47715 40 0 35.5228 0 30V10Z" fill="black"/>
<path d="M13.42 26.14C13.0067 26.14 12.66 26 12.38 25.72C12.1 25.44 11.96 25.0933 11.96 24.68C11.96 24.2667 12.1 23.92 12.38 23.64C12.66 23.36 13.0067 23.22 13.42 23.22C13.82 23.22 14.16 23.36 14.44 23.64C14.72 23.92 14.86 24.2667 14.86 24.68C14.86 25.0933 14.72 25.44 14.44 25.72C14.16 26 13.82 26.14 13.42 26.14ZM13.42 17.74C13.0067 17.74 12.66 17.6 12.38 17.32C12.1 17.04 11.96 16.6933 11.96 16.28C11.96 15.8667 12.1 15.52 12.38 15.24C12.66 14.96 13.0067 14.82 13.42 14.82C13.82 14.82 14.16 14.96 14.44 15.24C14.72 15.52 14.86 15.8667 14.86 16.28C14.86 16.6933 14.72 17.04 14.44 17.32C14.16 17.6 13.82 17.74 13.42 17.74ZM24.8423 18.86C25.589 18.9933 26.2223 19.3867 26.7423 20.04C27.2623 20.6933 27.5223 21.4333 27.5223 22.26C27.5223 22.9667 27.3357 23.6067 26.9623 24.18C26.6023 24.74 26.0757 25.1867 25.3823 25.52C24.689 25.84 23.8823 26 22.9623 26H17.4023V12.1H22.7023C23.649 12.1 24.4623 12.26 25.1423 12.58C25.8223 12.9 26.3357 13.3333 26.6823 13.88C27.029 14.4133 27.2023 15.0133 27.2023 15.68C27.2023 16.48 26.989 17.1467 26.5623 17.68C26.1357 18.2133 25.5623 18.6067 24.8423 18.86ZM19.6823 17.94H22.5023C23.249 17.94 23.829 17.7733 24.2423 17.44C24.669 17.0933 24.8823 16.6 24.8823 15.96C24.8823 15.3333 24.669 14.8467 24.2423 14.5C23.829 14.14 23.249 13.96 22.5023 13.96H19.6823V17.94ZM22.7623 24.14C23.5357 24.14 24.1423 23.9533 24.5823 23.58C25.0223 23.2067 25.2423 22.6867 25.2423 22.02C25.2423 21.34 25.009 20.8 24.5423 20.4C24.0757 20 23.4557 19.8 22.6823 19.8H19.6823V24.14H22.7623Z" fill="white"/>
</svg>
